<?xml version="1.0" encoding="UTF-8"?>
<svg version="1.1" xmlns="http://www.w3.org/2000/svg" width="500" height="313">
<path d="M0 0 C7.79559959 6.52284863 14.4581695 13.03569415 20.0625 21.5625 C20.58126709 22.34826416 21.10003418 23.13402832 21.63452148 23.94360352 C33.43152392 42.2353556 39.09426412 63.58515336 34.8125 85.1875 C33.17299835 92.03714872 30.7253179 98.51525148 28 105 C33.89066214 100.24156903 38.55533227 95.12530771 43 89 C44.36989062 93.10967186 42.81666767 95.55540354 41.125 99.3125 C40.80692383 100.0230957 40.48884766 100.73369141 40.16113281 101.46582031 C32.26332172 118.57901368 19.56494717 135.50545711 3 145 C3.88751953 144.69255859 3.88751953 144.69255859 4.79296875 144.37890625 C8.83660816 143.0002429 12.76855249 141.68249153 17 141 C2.99223962 155.94161107 -14.56120098 164.04270968 -34.3125 168.4375 C-41.06008195 170.08347349 -47.36464046 172.55703028 -51.6953125 178.21484375 C-55.0803975 184.02751829 -56.14337834 189.09959738 -56.0625 195.8125 C-56.05347656 196.78832031 -56.04445312 197.76414063 -56.03515625 198.76953125 C-56.02355469 199.50558594 -56.01195312 200.24164063 -56 201 C-61.07953786 196.24680116 -62.5762089 190.37693265 -63.05859375 183.61328125 C-62.8773389 175.5293149 -59.63522789 168.68789357 -54 163 C-46.00011826 156.07765336 -37.30926348 150.05657712 -28.70117188 143.92504883 C-21.96871883 139.08123059 -15.68223808 133.81708854 -9.49511719 128.30053711 C-8.02434671 127.02117814 -6.49648269 125.80842378 -4.96875 124.59765625 C-1.59501344 121.64563676 1.0345396 118.48414703 3.75 114.9375 C4.47123047 114.02000977 4.47123047 114.02000977 5.20703125 113.08398438 C7.46610307 110.17362026 9.53728786 107.41016028 11 104 C10.55011719 104.59425781 10.10023438 105.18851562 9.63671875 105.80078125 C-3.71574706 123.00646364 -20.07891957 133.99985572 -38.2265625 145.57421875 C-41.99522868 147.9808856 -45.68495296 150.49234721 -49.3359375 153.07421875 C-51 154 -51 154 -54 154 C-54.78856819 139.42609162 -51.77264421 128.35724999 -42.07592773 117.52978516 C-38.64045462 113.75960921 -35.12731091 110.08578738 -31.4375 106.5625 C-20.61906764 95.79583047 -12.51247202 82.597847 -8 68 C-5.36177976 71.10378852 -4.29634269 73.81462924 -3.3125 77.75 C-3.06113281 78.73484375 -2.80976563 79.7196875 -2.55078125 80.734375 C-2.36902344 81.48203125 -2.18726563 82.2296875 -2 83 C0.60390679 76.25351423 1.67242931 69.81959028 2.53125 62.6484375 C2.92128079 59.61269782 3.42119364 56.67711937 4.0625 53.6875 C7.54137209 37.08752767 6.64961206 20.28434242 0.8046875 4.328125 C0 2 0 2 0 0 Z M13 99 C14 101 14 101 14 101 Z " fill="#000000" transform="translate(257,8)"/>
<path d="M0 0 C0.86625 -0.00257813 1.7325 -0.00515625 2.625 -0.0078125 C5 0.125 5 0.125 8 1.125 C7.01 4.425 6.02 7.725 5 11.125 C3.02 11.125 1.04 11.125 -1 11.125 C-1.33 13.105 -1.66 15.085 -2 17.125 C4.6 17.125 11.2 17.125 18 17.125 C22.95 29.995 22.95 29.995 28 43.125 C30.91807508 35.31710035 30.91807508 35.31710035 33.83374023 27.50830078 C34.19669189 26.53876465 34.55964355 25.56922852 34.93359375 24.5703125 C35.30540771 23.57531738 35.67722168 22.58032227 36.06030273 21.55517578 C37 19.125 37 19.125 38 17.125 C41.63 17.125 45.26 17.125 49 17.125 C50 19.125 50 19.125 49.24708557 21.56741333 C48.83627243 22.59333588 48.42545929 23.61925842 48.00219727 24.67626953 C47.31136803 26.41784836 47.31136803 26.41784836 46.60658264 28.1946106 C46.09335466 29.46574419 45.57995853 30.7368099 45.06640625 32.0078125 C44.54863739 33.30505959 44.03155084 34.6025792 43.51512146 35.90036011 C42.15247811 39.31930691 40.78056992 42.73446222 39.40673828 46.14892578 C38.00711074 49.63220936 36.61622337 53.11897781 35.22460938 56.60546875 C32.49164174 63.44877031 29.74808336 70.28775093 27 77.125 C23.04 77.125 19.08 77.125 15 77.125 C15.68970519 71.57451534 17.68021525 67.43574326 20.234375 62.515625 C22.16333987 53.97306628 16.1014987 44.22281292 12.8125 36.5 C12.34908203 35.40042969 11.88566406 34.30085938 11.40820312 33.16796875 C10.27669493 30.48501117 9.14056098 27.80411856 8 25.125 C7.67 25.785 7.34 26.445 7 27.125 C4.03 27.125 1.06 27.125 -2 27.125 C-2 37.685 -2 48.245 -2 59.125 C-5.96 59.125 -9.92 59.125 -14 59.125 C-14 48.565 -14 38.005 -14 27.125 C-16.31 27.125 -18.62 27.125 -21 27.125 C-21 23.825 -21 20.525 -21 17.125 C-18.69 17.125 -16.38 17.125 -14 17.125 C-13.98582031 16.47273438 -13.97164063 15.82046875 -13.95703125 15.1484375 C-13.60805637 8.75370866 -12.73304643 5.51997169 -8 1.125 C-5.05173237 0.14224412 -3.07347496 -0.00914725 0 0 Z " fill="#000000" transform="translate(314,200.875)"/>
<path d="M0 0 C4.8124223 0.12539066 4.8124223 0.12539066 7.13452148 2.44555664 C7.90131226 3.63459595 7.90131226 3.63459595 8.68359375 4.84765625 C9.27462891 5.75507568 9.86566406 6.66249512 10.47460938 7.59741211 C13.98291503 13.30201445 17.43002269 19.03223231 20.8125 24.8125 C23.308125 29.06125 25.80375 33.31 28.375 37.6875 C28.705 25.4775 29.035 13.2675 29.375 0.6875 C32.675 0.6875 35.975 0.6875 39.375 0.6875 C40.375 1.6875 40.375 1.6875 40.49525452 4.00965881 C40.49303391 5.03780197 40.49081329 6.06594513 40.48852539 7.12524414 C40.48844986 8.28637222 40.48837433 9.44750031 40.48829651 10.64381409 C40.48313522 11.907332 40.47797394 13.17084991 40.47265625 14.47265625 C40.4712413 15.75861191 40.46982635 17.04456757 40.46836853 18.36949158 C40.46454418 21.79393443 40.45471462 25.21833509 40.44366455 28.64276123 C40.43344864 32.13488189 40.42887053 35.62700934 40.42382812 39.11914062 C40.41309227 45.97527778 40.39601684 52.83138687 40.375 59.6875 C36.32218308 60.024034 32.41978319 60.17247812 28.375 59.6875 C25.53149414 57.26000977 25.53149414 57.26000977 23.66015625 53.87890625 C23.31166122 53.27876205 22.9631662 52.67861786 22.60411072 52.06028748 C21.50473598 50.1446443 20.47185915 48.20136995 19.4375 46.25 C18.71962633 44.97487872 17.99764797 43.70205918 17.27148438 42.43164062 C15.25470489 38.87740618 13.3152327 35.28415412 11.375 31.6875 C9.725 28.7175 8.075 25.7475 6.375 22.6875 C6.045 34.8975 5.715 47.1075 5.375 59.6875 C1.745 59.6875 -1.885 59.6875 -5.625 59.6875 C-5.64755549 52.14251411 -5.66591769 44.59754069 -5.67681217 37.05252934 C-5.68203989 33.54941115 -5.6891355 30.04631715 -5.70043945 26.54321289 C-5.71334206 22.51969159 -5.71822912 18.49619586 -5.72265625 14.47265625 C-5.73039818 12.57737938 -5.73039818 12.57737938 -5.73829651 10.64381409 C-5.73837204 9.482686 -5.73844757 8.32155792 -5.73852539 7.12524414 C-5.74185631 5.5830294 -5.74185631 5.5830294 -5.74525452 4.00965881 C-5.53854488 0.01802001 -3.62628257 0.33414386 0 0 Z " fill="#000000" transform="translate(113.625,200.3125)"/>
<path d="M0 0 C4.82168203 2.42150845 7.52644202 6.64927376 9.765625 11.38671875 C10.765625 15.38671875 10.765625 15.38671875 10.765625 24.38671875 C1.525625 24.38671875 -7.714375 24.38671875 -17.234375 24.38671875 C-15.06770833 30.22005208 -15.06770833 30.22005208 -12.234375 31.38671875 C-6.5024463 31.76258293 -4.15194245 31.39189886 0.765625 28.38671875 C3.86945885 29.32727446 6.22972329 31.39422455 8.765625 33.38671875 C8.640625 35.13671875 8.640625 35.13671875 7.765625 37.38671875 C0.75690461 42.83794572 -5.58393165 42.98918064 -14.234375 42.38671875 C-19.48492844 41.33660806 -22.64471649 38.29430896 -25.97265625 34.30078125 C-30.249379 27.81287367 -30.11470738 20.54668678 -28.83984375 13.07421875 C-27.09633116 7.31500298 -23.084389 3.76021639 -18.234375 0.38671875 C-12.58642389 -1.49593162 -5.75519319 -1.57965967 0 0 Z M-15.234375 10.38671875 C-17.5117251 13.20181868 -17.5117251 13.20181868 -17.234375 16.38671875 C-11.624375 16.38671875 -6.014375 16.38671875 -0.234375 16.38671875 C-2.14522027 11.19009379 -2.14522027 11.19009379 -6.234375 8.38671875 C-9.82252859 7.93819955 -12.20769379 8.40372072 -15.234375 10.38671875 Z " fill="#010101" transform="translate(192.234375,218.61328125)"/>
<path d="M0 0 C4.17975967 -0.67946832 7.85343927 -0.96804851 12 0 C14.5107827 2.69104402 16.03303896 5.31882302 17.6953125 8.59375 C18.12585938 9.3878125 18.55640625 10.181875 19 11 C19.66 11 20.32 11 21 11 C21.98604704 9.18142223 22.93868689 7.34467657 23.875 5.5 C25.71484375 2.44921875 25.71484375 2.44921875 28 0 C32.14656073 -0.96804851 35.82024033 -0.67946832 40 0 C40.495 0.99 40.495 0.99 41 2 C34.565 11.405 34.565 11.405 28 21 C31.90074756 27.16318115 35.82594043 33.29289431 39.93359375 39.3203125 C41 41 41 41 41 42 C36.20346347 42.59135382 31.76927966 42.89026554 27 42 C23.94704036 39.09442462 22.36439679 35.96324781 21 32 C21 31.34 21 30.68 21 30 C20.34 30 19.68 30 19 30 C18.773125 30.680625 18.54625 31.36125 18.3125 32.0625 C17.6628125 33.5165625 17.6628125 33.5165625 17 35 C16.73960937 35.62390625 16.47921875 36.2478125 16.2109375 36.890625 C14.99371461 39.17640233 14.1110185 40.46864642 12 42 C7.60956574 42.60741445 3.40356944 42.40618576 -1 42 C0.77876928 36.58143695 4.17259546 32.52497552 7.63085938 28.08398438 C10.25474515 24.90011562 10.25474515 24.90011562 10.76904297 21.01586914 C9.96503247 18.90834068 9.02032688 17.30532452 7.71484375 15.46875 C7.26689453 14.82292969 6.81894531 14.17710937 6.35742188 13.51171875 C5.40950657 12.16873008 4.45897502 10.82758427 3.50585938 9.48828125 C3.05919922 8.84246094 2.61253906 8.19664062 2.15234375 7.53125 C1.73976318 6.94923828 1.32718262 6.36722656 0.90209961 5.76757812 C0 4 0 4 0 0 Z " fill="#010101" transform="translate(206,218)"/>
<path d="M0 0 C3.3 0 6.6 0 10 0 C10.33 16.17 10.66 32.34 11 49 C12.65 49.33 14.3 49.66 16 50 C16 53.3 16 56.6 16 60 C13.89646505 60.0810206 11.79204048 60.13919907 9.6875 60.1875 C8.51574219 60.22230469 7.34398437 60.25710938 6.13671875 60.29296875 C3 60 3 60 1.14453125 58.67578125 C-1.05773635 55.4513007 -1.12616882 52.58826536 -1.12939453 48.81005859 C-1.13254669 47.75241302 -1.13569885 46.69476746 -1.13894653 45.60507202 C-1.1369223 44.46438263 -1.13489807 43.32369324 -1.1328125 42.1484375 C-1.13376923 40.97866364 -1.13472595 39.80888977 -1.13571167 38.60366821 C-1.13639245 36.13063503 -1.13454525 33.65760006 -1.13037109 31.18457031 C-1.12501188 27.38342311 -1.13032449 23.58239356 -1.13671875 19.78125 C-1.13605814 17.38281224 -1.13477733 14.98437455 -1.1328125 12.5859375 C-1.13483673 11.44119965 -1.13686096 10.29646179 -1.13894653 9.11703491 C-1.13579437 8.06569366 -1.13264221 7.01435242 -1.12939453 5.93115234 C-1.12859894 5.00088226 -1.12780334 4.07061218 -1.12698364 3.1121521 C-1 1 -1 1 0 0 Z " fill="#000000" transform="translate(253,201)"/>
<path d="M0 0 C3.3 0 6.6 0 10 0 C11 1 11 1 11.11352539 4.87719727 C11.11336621 6.60694167 11.10766849 8.33669081 11.09765625 10.06640625 C11.0962413 10.97502914 11.09482635 11.88365204 11.09336853 12.81980896 C11.08775193 15.73407221 11.07519665 18.64825981 11.0625 21.5625 C11.05748714 23.53320202 11.05292386 25.50390524 11.04882812 27.47460938 C11.03777711 32.31643559 11.02050138 37.15820495 11 42 C7.37 42 3.74 42 0 42 C0 28.14 0 14.28 0 0 Z " fill="#000002" transform="translate(276,218)"/>
<path d="M0 0 C2.75329021 1.79562405 4.52627461 3.05254922 6 6 C6.12243863 10.53022942 5.81830145 13.98332245 2.9375 17.5625 C-0.87775616 19.42954025 -3.83599701 19.94025874 -8 19 C-11 17.0625 -11 17.0625 -13 14 C-13.62867003 10.87334018 -13.64824105 8.12440504 -13 5 C-9.31754563 0.09006083 -5.99877304 -0.5083706 0 0 Z " fill="#2962E3" transform="translate(286,196)"/>
<path d="M0 0 C0.680625 -0.0103125 1.36125 -0.020625 2.0625 -0.03125 C4 0.5 4 0.5 5.71875 2.12890625 C8.27547455 6.86040564 7.69719907 12.29731638 7 17.5 C4.875 20.875 4.875 20.875 2 22.5 C-1.125 22.5625 -1.125 22.5625 -4 21.5 C-6.36696609 19.12745144 -6.96619497 17.76248614 -7.3984375 14.40625 C-7.39070312 13.2821875 -7.38296875 12.158125 -7.375 11 C-7.38273438 9.8759375 -7.39046875 8.751875 -7.3984375 7.59375 C-6.7743791 2.7481201 -5.13478915 -0.07779984 0 0 Z M-2 3.5 C-4.49615286 7.24422929 -4.61489576 11.15117199 -4 15.5 C-2.66169042 17.9595774 -2.66169042 17.9595774 -1 19.5 C0.98491642 19.23323796 0.98491642 19.23323796 3 18.5 C3.92867074 15.71398777 4.16342217 13.88933911 4.1875 11 C4.20876953 9.83984375 4.20876953 9.83984375 4.23046875 8.65625 C4.13661528 6.20319944 4.13661528 6.20319944 2 3.5 C0.68 3.5 -0.64 3.5 -2 3.5 Z " fill="#020202" transform="translate(247,272.5)"/>
<path d="M0 0 C0.66 0.33 1.32 0.66 2 1 C0.84826645 3.46800047 -0.04783565 5.04783565 -2 7 C-1.21625 7.268125 -0.4325 7.53625 0.375 7.8125 C3 9 3 9 5 12 C5.4375 15.4375 5.4375 15.4375 5 19 C2.9375 21.5 2.9375 21.5 0 23 C-3.625 23.125 -3.625 23.125 -7 22 C-9.0625 19.4375 -9.0625 19.4375 -10 16 C-9.27336749 9.46030742 -6.77478424 5.47636023 -2 1 C-1.34 0.67 -0.68 0.34 0 0 Z M-4 11 C-4.66 11.66 -5.32 12.32 -6 13 C-5.67801034 16.09926819 -5.67801034 16.09926819 -5 19 C-3.02 19.495 -3.02 19.495 -1 20 C0.73647948 18.32511472 0.73647948 18.32511472 2 16 C1.29042763 13.26601865 1.29042763 13.26601865 0 11 C-1.32 11 -2.64 11 -4 11 Z " fill="#020202" transform="translate(313,272)"/>
<path d="M0 0 C2.0625 1.625 2.0625 1.625 3 4 C3.13452954 9.91929965 -0.4030781 13.66609411 -4 18 C-1.69 18.33 0.62 18.66 3 19 C3 19.66 3 20.32 3 21 C-1.62 21 -6.24 21 -11 21 C-8.58703716 16.97839527 -6.14029426 13.5689747 -3.20703125 9.96484375 C-1.65104288 7.81628624 -1.65104288 7.81628624 -2 4 C-3.65 4 -5.3 4 -7 4 C-7.33 4.66 -7.66 5.32 -8 6 C-8.66 6 -9.32 6 -10 6 C-10 4.35 -10 2.7 -10 1 C-6.8054231 -0.59728845 -3.46767846 -0.50245953 0 0 Z " fill="#030303" transform="translate(219,273)"/>
<path d="M0 0 C2.0625 1.625 2.0625 1.625 3 4 C3.13452954 9.91929965 -0.4030781 13.66609411 -4 18 C-1.69 18.33 0.62 18.66 3 19 C3 19.66 3 20.32 3 21 C-1.62 21 -6.24 21 -11 21 C-8.58703716 16.97839527 -6.14029426 13.5689747 -3.20703125 9.96484375 C-1.65104288 7.81628624 -1.65104288 7.81628624 -2 4 C-3.65 4 -5.3 4 -7 4 C-7.33 4.66 -7.66 5.32 -8 6 C-8.66 6 -9.32 6 -10 6 C-10 4.35 -10 2.7 -10 1 C-6.8054231 -0.59728845 -3.46767846 -0.50245953 0 0 Z " fill="#020202" transform="translate(283,273)"/>
<path d="M0 0 C0.33 0 0.66 0 1 0 C0.63870968 7.22580645 0.63870968 7.22580645 -2.0625 10.5 C-6.12263786 12.57326189 -8.46438907 12.5120851 -13 12 C-15 10.5 -15 10.5 -16 9 C-15.278125 9.144375 -14.55625 9.28875 -13.8125 9.4375 C-12.4203125 9.7159375 -12.4203125 9.7159375 -11 10 C-9.33333333 10.33333333 -7.66666667 10.66666667 -6 11 C-6 10.01 -6 9.02 -6 8 C-4.68 7.67 -3.36 7.34 -2 7 C-2.33 5.35 -2.66 3.7 -3 2 C-2.34 2 -1.68 2 -1 2 C-0.67 1.34 -0.34 0.68 0 0 Z " fill="#3565D2" transform="translate(291,203)"/>
</svg>
